<svg width="2924" height="692" viewBox="0 0 2924 692" fill="none" xmlns="http://www.w3.org/2000/svg">
<path d="M275.4 271.5H237.6V262.95C237.6 258.45 237.3 255.6 236.7 254.4C236.4 252.9 234.9 251.1 232.2 249C229.5 246.9 227.4 245.7 225.9 245.4C224.4 244.8 220.95 244.5 215.55 244.5H104.85C99.45 244.5 96 244.8 94.5 245.4C93 245.7 90.9 246.9 88.2 249C85.5 251.1 83.85 252.9 83.25 254.4C82.95 255.6 82.8 258.45 82.8 262.95V478.05C82.8 482.55 82.95 485.55 83.25 487.05C83.85 488.25 85.5 489.9 88.2 492C90.9 494.1 93 495.45 94.5 496.05C96 496.35 99.45 496.5 104.85 496.5H215.55C220.95 496.5 224.4 496.35 225.9 496.05C227.4 495.45 229.5 494.1 232.2 492C234.9 489.9 236.4 488.25 236.7 487.05C237.3 485.55 237.6 482.55 237.6 478.05V397.5H169.2V366H275.4V487.5C275.4 496.5 271.8 504 264.6 510L253.8 519C246.6 525 239.4 528 232.2 528H88.2C81 528 73.8 525 66.6 519L55.8 510C48.6 504 45 496.5 45 487.5V253.5C45 244.5 48.6 237 55.8 231L66.6 222C73.8 216 81 213 88.2 213H232.2C239.4 213 246.6 216 253.8 222L264.6 231C271.8 237 275.4 244.5 275.4 253.5V271.5ZM505.136 487.5L532.136 510L521.336 519C515.936 523.5 512.186 526.2 510.086 527.1C508.286 527.7 504.686 528 499.286 528H379.136C371.936 528 364.736 525 357.536 519L346.736 510C339.536 504 335.936 496.5 335.936 487.5V343.5C335.936 334.5 339.536 327 346.736 321L357.536 312C364.736 306 371.936 303 379.136 303H483.986C489.986 303 497.186 306 505.586 312L516.836 321C524.036 326.4 527.636 333.9 527.636 343.5V435.75H373.736V478.05C373.736 482.55 373.886 485.55 374.186 487.05C374.786 488.25 376.436 489.9 379.136 492C381.836 494.1 383.936 495.45 385.436 496.05C386.936 496.35 390.386 496.5 395.786 496.5H483.086C488.486 496.5 492.086 496.2 493.886 495.6C495.986 494.7 499.736 492 505.136 487.5ZM489.836 406.5V352.95C489.836 348.45 489.536 345.6 488.936 344.4C488.636 342.9 487.136 341.1 484.436 339C481.736 336.9 479.636 335.7 478.136 335.4C476.636 334.8 473.186 334.5 467.786 334.5H395.786C390.386 334.5 386.936 334.8 385.436 335.4C383.936 335.7 381.836 336.9 379.136 339C376.436 341.1 374.786 342.9 374.186 344.4C373.886 345.6 373.736 348.45 373.736 352.95V406.5H489.836ZM633.34 240V303H690.94C694.84 306 697.09 308.4 697.69 310.2C698.59 311.7 699.04 315.9 699.04 322.8V334.5H633.34V478.05C633.34 482.55 633.49 485.55 633.79 487.05C634.39 488.25 636.04 489.9 638.74 492C641.44 494.1 643.54 495.45 645.04 496.05C646.54 496.35 649.99 496.5 655.39 496.5H696.34C700.24 499.5 702.49 501.9 703.09 503.7C703.99 505.2 704.44 509.4 704.44 516.3V528H638.74C631.54 528 624.34 525 617.14 519L606.34 510C599.14 504 595.54 496.5 595.54 487.5V334.5H573.94C570.04 331.5 567.64 329.25 566.74 327.75C566.14 325.95 565.84 321.6 565.84 314.7V303H595.54V240H633.34ZM1044.16 361.5H1006.36V352.95C1006.36 348.45 1006.06 345.6 1005.46 344.4C1005.16 342.9 1003.66 341.1 1000.96 339C998.258 336.9 996.158 335.7 994.658 335.4C993.158 334.8 989.708 334.5 984.308 334.5H924.008C918.608 334.5 915.158 334.8 913.658 335.4C912.158 335.7 910.058 336.9 907.358 339C904.658 341.1 903.008 342.9 902.408 344.4C902.108 345.6 901.958 348.45 901.958 352.95V478.05C901.958 482.55 902.108 485.55 902.408 487.05C903.008 488.25 904.658 489.9 907.358 492C910.058 494.1 912.158 495.45 913.658 496.05C915.158 496.35 918.608 496.5 924.008 496.5H984.308C989.708 496.5 993.158 496.35 994.658 496.05C996.158 495.45 998.258 494.1 1000.96 492C1003.66 489.9 1005.16 488.25 1005.46 487.05C1006.06 485.55 1006.36 482.55 1006.36 478.05V469.5H1044.16V487.5C1044.16 496.5 1040.56 504 1033.36 510L1022.56 519C1015.36 525 1008.16 528 1000.96 528H907.358C900.158 528 892.958 525 885.758 519L874.958 510C867.758 504 864.158 496.5 864.158 487.5V343.5C864.158 334.5 867.758 327 874.958 321L885.758 312C892.958 306 900.158 303 907.358 303H1000.96C1008.16 303 1015.36 306 1022.56 312L1033.36 321C1040.56 327 1044.16 334.5 1044.16 343.5V361.5ZM1095.75 528V195H1133.55V399.75H1171.35L1211.85 333.6C1215.15 328.5 1217.55 325.05 1219.05 323.25C1220.85 321.45 1224 318.9 1228.5 315.6L1237.05 309.75C1241.85 306.45 1245.15 304.5 1246.95 303.9C1249.05 303.3 1252.8 303 1258.2 303H1267.2V320.55C1267.2 327.45 1266.75 331.8 1265.85 333.6C1264.95 335.1 1261.8 337.35 1256.4 340.35L1251.45 343.05C1246.95 345.75 1243.95 348 1242.45 349.8C1240.95 351.3 1238.4 354.6 1234.8 359.7L1205.55 405.15C1202.85 409.35 1200.15 412.2 1197.45 413.7V415.5C1200.15 416.1 1203.6 419.55 1207.8 425.85L1273.5 528H1231.65L1171.8 431.25H1133.55V528H1095.75ZM1489.95 487.5L1516.95 510L1506.15 519C1500.75 523.5 1497 526.2 1494.9 527.1C1493.1 527.7 1489.5 528 1484.1 528H1363.95C1356.75 528 1349.55 525 1342.35 519L1331.55 510C1324.35 504 1320.75 496.5 1320.75 487.5V343.5C1320.75 334.5 1324.35 327 1331.55 321L1342.35 312C1349.55 306 1356.75 303 1363.95 303H1468.8C1474.8 303 1482 306 1490.4 312L1501.65 321C1508.85 326.4 1512.45 333.9 1512.45 343.5V435.75H1358.55V478.05C1358.55 482.55 1358.7 485.55 1359 487.05C1359.6 488.25 1361.25 489.9 1363.95 492C1366.65 494.1 1368.75 495.45 1370.25 496.05C1371.75 496.35 1375.2 496.5 1380.6 496.5H1467.9C1473.3 496.5 1476.9 496.2 1478.7 495.6C1480.8 494.7 1484.55 492 1489.95 487.5ZM1474.65 406.5V352.95C1474.65 348.45 1474.35 345.6 1473.75 344.4C1473.45 342.9 1471.95 341.1 1469.25 339C1466.55 336.9 1464.45 335.7 1462.95 335.4C1461.45 334.8 1458 334.5 1452.6 334.5H1380.6C1375.2 334.5 1371.75 334.8 1370.25 335.4C1368.75 335.7 1366.65 336.9 1363.95 339C1361.25 341.1 1359.6 342.9 1359 344.4C1358.7 345.6 1358.55 348.45 1358.55 352.95V406.5H1474.65ZM1566.4 303H1582.15C1587.55 303 1591.15 303.45 1592.95 304.35C1595.05 304.95 1597.9 306.75 1601.5 309.75C1606.3 313.65 1608.7 317.4 1608.7 321H1610.5C1610.5 317.4 1613.8 313.65 1620.4 309.75C1625.8 306.45 1629.4 304.5 1631.2 303.9C1633.3 303.3 1637.05 303 1642.45 303H1683.85C1691.05 303 1698.25 306 1705.45 312L1716.25 321L1689.25 343.5L1683.85 339C1681.15 336.9 1679.05 335.7 1677.55 335.4C1676.05 334.8 1672.6 334.5 1667.2 334.5H1647.85C1642.45 334.5 1638.7 334.8 1636.6 335.4C1634.8 336 1631.2 337.95 1625.8 341.25C1620.4 344.55 1617.25 346.95 1616.35 348.45C1615.45 349.95 1615 352.95 1615 357.45V528H1577.2V352.95C1577.2 348.45 1576.9 345.6 1576.3 344.4C1576 342.9 1574.5 341.1 1571.8 339C1569.1 336.9 1567.45 335.25 1566.85 334.05C1566.55 332.55 1566.4 329.55 1566.4 325.05V303ZM1897.59 397.5C1904.79 397.5 1911.99 400.5 1919.19 406.5L1929.99 415.5C1937.19 421.5 1940.79 429 1940.79 438V487.5C1940.79 496.5 1937.19 504 1929.99 510L1919.19 519C1911.99 525 1904.79 528 1897.59 528H1797.69C1790.49 528 1783.29 525 1776.09 519L1765.29 510C1758.09 504 1754.49 496.5 1754.49 487.5V469.5H1792.29V478.05C1792.29 482.55 1792.44 485.55 1792.74 487.05C1793.34 488.25 1794.99 489.9 1797.69 492C1800.39 494.1 1802.49 495.45 1803.99 496.05C1805.49 496.35 1808.94 496.5 1814.34 496.5H1880.94C1886.34 496.5 1889.79 496.35 1891.29 496.05C1892.79 495.45 1894.89 494.1 1897.59 492C1900.29 489.9 1901.79 488.25 1902.09 487.05C1902.69 485.55 1902.99 482.55 1902.99 478.05V441.6C1902.69 439.2 1900.89 436.5 1897.59 433.5C1894.89 431.4 1892.79 430.2 1891.29 429.9C1889.79 429.3 1886.34 429 1880.94 429H1802.19C1794.99 429 1787.79 426 1780.59 420L1769.79 411C1762.59 405 1758.99 397.5 1758.99 388.5V343.5C1758.99 334.5 1762.59 327 1769.79 321L1780.59 312C1787.79 306 1794.99 303 1802.19 303H1897.59C1904.79 303 1911.99 306 1919.19 312L1929.99 321C1937.19 327 1940.79 334.5 1940.79 343.5V361.5H1902.99V352.95C1902.99 348.45 1902.69 345.6 1902.09 344.4C1901.79 342.9 1900.29 341.1 1897.59 339C1894.89 336.9 1892.79 335.7 1891.29 335.4C1889.79 334.8 1886.34 334.5 1880.94 334.5H1818.84C1813.44 334.5 1809.99 334.8 1808.49 335.4C1806.99 335.7 1804.89 336.9 1802.19 339C1799.49 341.1 1797.84 342.9 1797.24 344.4C1796.94 345.6 1796.79 348.45 1796.79 352.95V379.05C1796.79 383.55 1796.94 386.55 1797.24 388.05C1797.84 389.25 1799.49 390.9 1802.19 393C1804.89 395.1 1806.99 396.45 1808.49 397.05C1809.99 397.35 1813.44 397.5 1818.84 397.5H1897.59ZM2032.67 501.45V511.8C2032.67 516.3 2032.52 519.15 2032.22 520.35C2031.92 521.55 2030.72 523.05 2028.62 524.85C2026.52 526.95 2022.02 528 2015.12 528H2012.87C2005.67 528 2000.87 526.95 1998.47 524.85C1996.07 522.45 1994.87 518.1 1994.87 511.8V501.45C1994.87 496.95 1995.02 494.1 1995.32 492.9C1995.62 491.7 1996.82 490.2 1998.92 488.4C2001.02 486.3 2005.67 485.25 2012.87 485.25H2014.67C2021.87 485.25 2026.67 486.3 2029.07 488.4C2031.47 490.8 2032.67 495.15 2032.67 501.45ZM2266.72 361.5H2228.92V352.95C2228.92 348.45 2228.62 345.6 2228.02 344.4C2227.72 342.9 2226.22 341.1 2223.52 339C2220.82 336.9 2218.72 335.7 2217.22 335.4C2215.72 334.8 2212.27 334.5 2206.87 334.5H2146.57C2141.17 334.5 2137.72 334.8 2136.22 335.4C2134.72 335.7 2132.62 336.9 2129.92 339C2127.22 341.1 2125.57 342.9 2124.97 344.4C2124.67 345.6 2124.52 348.45 2124.52 352.95V478.05C2124.52 482.55 2124.67 485.55 2124.97 487.05C2125.57 488.25 2127.22 489.9 2129.92 492C2132.62 494.1 2134.72 495.45 2136.22 496.05C2137.72 496.35 2141.17 496.5 2146.57 496.5H2206.87C2212.27 496.5 2215.72 496.35 2217.22 496.05C2218.72 495.45 2220.82 494.1 2223.52 492C2226.22 489.9 2227.72 488.25 2228.02 487.05C2228.62 485.55 2228.92 482.55 2228.92 478.05V469.5H2266.72V487.5C2266.72 496.5 2263.12 504 2255.92 510L2245.12 519C2237.92 525 2230.72 528 2223.52 528H2129.92C2122.72 528 2115.52 525 2108.32 519L2097.52 510C2090.32 504 2086.72 496.5 2086.72 487.5V343.5C2086.72 334.5 2090.32 327 2097.52 321L2108.32 312C2115.52 306 2122.72 303 2129.92 303H2223.52C2230.72 303 2237.92 306 2245.12 312L2255.92 321C2263.12 327 2266.72 334.5 2266.72 343.5V361.5ZM2361.96 303H2469.96C2477.16 303 2484.36 306 2491.56 312L2502.36 321C2509.56 327 2513.16 334.5 2513.16 343.5V487.5C2513.16 496.5 2509.56 504 2502.36 510L2491.56 519C2484.36 525 2477.16 528 2469.96 528H2361.96C2354.76 528 2347.56 525 2340.36 519L2329.56 510C2322.36 504 2318.76 496.5 2318.76 487.5V343.5C2318.76 334.5 2322.36 327 2329.56 321L2340.36 312C2347.56 306 2354.76 303 2361.96 303ZM2475.36 478.05V352.95C2475.36 348.45 2475.06 345.6 2474.46 344.4C2474.16 342.9 2472.66 341.1 2469.96 339C2467.26 336.9 2465.16 335.7 2463.66 335.4C2462.16 334.8 2458.71 334.5 2453.31 334.5H2378.61C2373.21 334.5 2369.76 334.8 2368.26 335.4C2366.76 335.7 2364.66 336.9 2361.96 339C2359.26 341.1 2357.61 342.9 2357.01 344.4C2356.71 345.6 2356.56 348.45 2356.56 352.95V478.05C2356.56 482.55 2356.71 485.55 2357.01 487.05C2357.61 488.25 2359.26 489.9 2361.96 492C2364.66 494.1 2366.76 495.45 2368.26 496.05C2369.76 496.35 2373.21 496.5 2378.61 496.5H2453.31C2458.71 496.5 2462.16 496.35 2463.66 496.05C2465.16 495.45 2467.26 494.1 2469.96 492C2472.66 489.9 2474.16 488.25 2474.46 487.05C2475.06 485.55 2475.36 482.55 2475.36 478.05ZM2742.53 324.6H2744.33C2744.63 321.9 2747.48 318.6 2752.88 314.7L2759.63 309.75C2765.03 306.45 2768.63 304.5 2770.43 303.9C2772.53 303.3 2776.28 303 2781.68 303H2853.23C2860.43 303 2867.63 306 2874.83 312L2885.63 321C2892.83 327 2896.43 334.5 2896.43 343.5V528H2858.63V352.95C2858.63 348.45 2858.33 345.6 2857.73 344.4C2857.43 342.9 2855.93 341.1 2853.23 339C2850.53 336.9 2848.43 335.7 2846.93 335.4C2845.43 334.8 2841.98 334.5 2836.58 334.5H2787.08C2781.68 334.5 2777.93 334.8 2775.83 335.4C2774.03 336 2770.43 337.95 2765.03 341.25C2758.13 345.45 2754.53 349.35 2754.23 352.95V528H2716.43V352.95C2716.43 348.45 2716.13 345.6 2715.53 344.4C2715.23 342.9 2713.73 341.1 2711.03 339C2708.33 336.9 2706.23 335.7 2704.73 335.4C2703.23 334.8 2699.78 334.5 2694.38 334.5H2648.93C2643.53 334.5 2639.78 334.8 2637.68 335.4C2635.88 336 2632.28 337.95 2626.88 341.25C2621.48 344.55 2618.33 346.95 2617.43 348.45C2616.53 349.95 2616.08 352.95 2616.08 357.45V528H2578.28V352.95C2578.28 348.45 2577.98 345.6 2577.38 344.4C2577.08 342.9 2575.58 341.1 2572.88 339C2570.18 336.9 2568.53 335.25 2567.93 334.05C2567.63 332.55 2567.48 329.55 2567.48 325.05V303H2583.23C2588.63 303 2592.23 303.45 2594.03 304.35C2596.13 304.95 2598.98 306.75 2602.58 309.75C2607.38 313.65 2609.78 317.4 2609.78 321H2611.58C2611.58 317.4 2614.88 313.65 2621.48 309.75C2626.88 306.45 2630.48 304.5 2632.28 303.9C2634.38 303.3 2638.13 303 2643.53 303H2711.03C2718.23 303 2725.43 306 2732.63 312C2738.93 317.7 2742.23 321.9 2742.53 324.6Z" fill="white"/>
<path d="M774 253H811.8V568H774V253Z" fill="white"/>
<path d="M774 566H1113.49C1115.36 566 1116.21 568.336 1114.77 569.534L1090.63 589.72C1089.25 590.873 1087.52 591.528 1085.73 591.579L808.486 599.513C789.602 600.054 774 584.892 774 566Z" fill="white"/>
<path d="M793 30L795.5 35.5L798 42.5L803 66L804.5 75V92.5L801 106L798 111L793 119L786.5 111L783.5 106L780.5 92.5L781 75L782.5 66L788.5 42.5L790.5 36L793 30Z" fill="white"/>
<path d="M695 128.5L700.5 126L707.5 123.5L731 118.5L740 117H757.5L771 120.5L776 123.5L784 128.5L776 135L771 138L757.5 141L740 140.5L731 139L707.5 133L701 131L695 128.5Z" fill="white"/>
<path d="M892 129.5L886.5 132L879.5 134.5L856 139.5L847 141H829.5L816 137.5L811 134.5L803 129.5L811 123L816 120L829.5 117L847 117.5L856 119L879.5 125L886 127L892 129.5Z" fill="white"/>
<path d="M792.5 228L790 222.5L787.5 215.5L782.5 192L781 183V165.5L784.5 152L787.5 147L792.5 139L799 147L802 152L805 165.5L804.5 183L803 192L797 215.5L795 222L792.5 228Z" fill="white"/>
<rect x="793.577" y="119" width="14.2057" height="14.0074" transform="rotate(49.0339 793.577 119)" fill="white"/>
</svg>
