<svg height="216.782231" viewBox="0 0 206.65996 96.968552" width="461.292421" xmlns="http://www.w3.org/2000/svg"><g fill="#63014a" stroke-width=".938982" transform="matrix(1.0649833 0 0 1.0649833 -9.356415 -147.959356)"><path d="m99.073099 229.89951c-29.469889-.99307-56.017767-8.01248-72.776039-19.24242-10.225237-6.85207-15.99423-14.5338-17.3245586-23.0686-.205738-1.31993-.250822-4.0651-.08954-5.45227.8433652-7.2538 4.9287076-13.91272 12.3351026-20.10567 8.681117-7.25882 22.040747-13.44717 37.76322-17.4924 18.451475-4.74738 39.801104-6.55178 60.798376-5.13848 26.09837 1.75664 49.56196 8.42088 64.87234 18.42535 10.61423 6.9358 16.69717 14.88813 18.00234 23.53477.20397 1.35127.24315 4.06893.0792 5.48918-.90989 7.87966-5.82694 15.25092-14.52855 21.7801-15.76187 11.82677-42.3526 19.6412-71.8353 21.11081-4.92358.24542-12.63791.31662-17.296548.15963zm13.845451-2.21282c24.57204-.90008 46.71647-5.88174 63.18789-14.21489 8.66905-4.38581 15.22056-9.43355 19.36217-14.91796 2.95086-3.9076 4.63081-7.8449 5.08186-11.91029.0451-.40674.082-1.38661.082-2.17748 0-1.57392-.0764-2.45124-.33153-3.80643-.9724-5.1654-4.24478-10.51125-9.28088-15.16147-14.37022-13.26916-41.95781-22.2742-73.66443-24.04528-6.87992-.3843-15.71257-.40041-22.473185-.041-26.985949 1.43469-51.280838 8.12096-67.011491 18.44244-3.29436 2.16155-5.848575 4.20884-8.303229 6.65531-4.361818 4.34728-7.067572 8.85733-8.114956 13.52631-.626068 2.79086-.626068 6.06936 0 8.86022 1.376832 6.13758 5.779737 12.21408 12.711182 17.54285 15.918505 12.23784 43.532669 20.13641 74.251757 21.23847 2.713642.0974 11.936382.1032 14.502802.009zm-36.933321-20.52148c.000885-.0339 1.53221-2.03985 3.402965-4.45766 1.870754-2.41783 3.394954-4.40255 3.387111-4.4105-.0078-.008-.365189.0777-.794101.19026-.562414.14764-1.091347.21775-1.89711.25146-1.284534.0538-1.998357-.0635-2.85578-.46897-.605322-.28627-1.391374-1.00464-1.666241-1.52277-.106931-.20157-.215538-.36649-.241348-.36649s-.24773.15106-.493154.33569c-1.732524 1.30335-3.656177 2.04721-5.294193 2.04721-2.358901 0-3.994014-1.11187-4.628536-3.14739l-.220419-.70708-.739026.57933c-2.656314 2.08232-5.429126 3.84034-8.216395 5.20936-3.482515 1.71049-6.276728 2.50122-8.842937 2.50241-3.707512.002-6.174115-1.6671-7.244304-4.9013-.407517-1.23155-.55669-2.14312-.610061-3.72795-.07477-2.22021.209411-3.99024 1.041856-6.48934 1.338208-4.01744 3.521649-7.86472 6.785129-11.95558 6.147353-7.70585 14.200301-13.2794 21.54098-14.9088 1.97609-.43862 4.57839-.61722 6.136289-.42112 3.580319.45065 5.514458 2.18224 5.890311 5.27344.253234 2.08272-.589783 4.79201-2.181302 7.01025-.249485.34773-.45361.64848-.45361.66833 0 .0198.499176.0361 1.10928.0361s1.10928.0303 1.10928.0673c0 .12635-1.481219 1.64592-2.241079 2.2991-3.204683 2.75477-7.205088 4.80157-10.411955 5.32724-1.072656.17583-2.623025.11553-3.410986-.13266-.316351-.0996-.603677-.20806-.6385-.24092-.03483-.0329.316444-.38758.780602-.78828 1.237976-1.06871 4.82863-4.6873 5.829101-5.87446 3.082117-3.65721 4.36155-6.19082 3.784748-7.49478-.125727-.28423-.264568-.43416-.565271-.61042-.35751-.20957-.489344-.23677-1.278645-.26382-1.052226-.0361-1.781771.10328-2.981901.56953-7.129087 2.76965-18.330991 15.26707-21.234156 23.68993-.532911 1.54612-.684947 2.43172-.643429 3.74793.02802.88842.07061 1.19926.213883 1.56121.373657.94395 1.056337 1.5879 1.982636 1.87016.647773.19739 1.833775.17596 2.682387-.0485 3.143979-.83149 9.182784-4.45286 13.237523-7.93834.90544-.77832 1.048625-.9388 2.093009-2.34593.697546-.93983 1.982257-2.26082 2.982849-3.06708 4.278869-3.44785 9.148984-4.49233 11.758817-2.52189.233611.17638.530598.48768.65997.69177.129374.2041.253712.37242.276309.37405.02259.002.29387-.32981.602832-.73652l.561748-.73948h2.997559 2.997558l-.280608.34922c-.68074.84719-6.546219 8.4606-6.932448 8.99835-.761375 1.06005-.945814 1.91018-.514118 2.3697.925671.98533 3.581401-.0898 6.258297-2.53367 1.02988-.94022 1.691458-1.7315 4.726537-5.65321l2.700432-3.4893 2.275832-.0218 2.275834-.0218-.33545.66716c-.18448.36693-.319985.6826-.301105.70147.0189.0189.336115-.13539.704965-.34282.88583-.49816 2.21324-1.04916 3.19896-1.32789 1.21519-.26755 2.54621-.41961 3.48501.0407 1.04218.51281 1.53796 1.34685 1.60661 2.70272.0637 1.25827-.29644 2.4971-1.29573 4.45715-.47104.92392-1.42829 2.4335-2.10626 3.32158l-.30402.39823.70742-.43429c1.55552-.95494 3.40691-2.4833 4.52813-3.73805.36686-.41056 1.64305-2.01301 2.83597-3.56099 1.19292-1.54799 2.20997-2.83027 2.26011-2.84951.0501-.0192 1.3795-.0253 2.95412-.0133l2.86294.0216-3.74546 4.84796c-3.60987 4.67247-4.14878 5.44295-4.27098 6.10615-.1314.71328.46884 1.15565 1.43154 1.05502 1.37568-.14378 3.62428-1.60457 5.55068-3.60596.45687-.47464 1.56118-1.80152 2.45404-2.94862l1.62338-2.08563-1.61915-.0411-1.61915-.0411 1.28713-1.66223 1.28713-1.66224 1.65737-.0222 1.65735-.0222 2.8763-3.71732 2.8763-3.71732 2.93753-.00093c1.61565-.00047 2.93742.0269 2.93726.0608 0 .0339-1.27264 1.70706-2.82775 3.71814l-2.82746 3.65652 2.11839.0411 2.11841.0411-1.30291 1.64338-1.3029 1.64338-2.14902.0411-2.14902.0411-2.40327 3.10843c-1.32181 1.70964-2.5225 3.34332-2.66822 3.6304-.32913.64846-.4047 1.18469-.20904 1.48332.17441.26617.59252.44667 1.03465.44667 1.0783 0 3.62385-1.35012 5.4768-2.90481.97039-.8142 1.47855-1.40422 2.34581-2.72376 1.22572-1.86491 2.50999-3.25616 4.13916-4.48393 3.16876-2.38803 6.59504-3.16748 8.96699-2.0399.7491.35611 1.62561 1.22969 1.97832 1.97171.73273 1.54151.73383 3.61056.003 5.73589-.084.24434-.15275.45695-.15275.47247 0 .13526 1.75512-.13281 1.91476-.29245.042-.042.27004-.58786.50682-1.21307.9455-2.4966 2.65565-6.04206 4.30556-8.92623 4.24149-7.41451 8.61306-12.49934 11.85285-13.78677.63182-.25107.76316-.27379 1.59247-.27546 1.08592-.002 1.55586.15239 2.29358.75437.96372.7864 1.3743 1.89031 1.19926 3.22445-.46894 3.57422-4.34466 9.3688-10.1436 15.16564-1.57384 1.57326-3.18076 3.05006-4.45634 4.09545l-.58948.48311-.25193.91315c-.34878 1.26421-.4179 1.68461-.4179 2.5418 0 .59134.0359.81764.17555 1.10609.45121.93209 1.56255.98523 3.21939.15394 1.13036-.56712 2.04663-1.23662 3.08329-2.25288.4731-.46378.87453-.82887.89209-.81132.0176.0176.32729.63367.6883 1.36915l.65637 1.33722-.26959.44685c-.35473.58796-1.31202 1.61329-2.10151 2.25088-2.52165 2.03649-5.45897 3.19373-8.10635 3.19373-1.77537 0-2.93418-.35396-3.78108-1.15493-.87705-.82948-1.1927-1.67711-1.25538-3.3712l-.0413-1.11612-.62672.14999c-.69836.16714-1.57149.1938-2.23374.0682l-.43801-.0831-.36583.43228c-.62429.73769-1.82576 1.86279-2.66283 2.49358-1.50551 1.1345-3.06696 1.92494-4.6352 2.34644-.91137.24495-2.51747.30074-3.34673.11625-1.73995-.3871-2.96529-1.5987-3.42173-3.38336-.0892-.34886-.17207-.64415-.18411-.65619-.012-.012-.30957.20168-.66119.47494-2.35233 1.8281-5.12663 3.18805-7.26394 3.56077-1.5255.26603-3.10767.10708-4.13967-.41587-.59006-.29901-1.34222-1.03494-1.60342-1.56883-.11798-.24114-.23809-.42473-.26691-.40797-.0288.0167-.30224.18251-.6076.36836-1.30739.7957-2.9586 1.50952-4.31587 1.86575-.94146.2471-2.75514.35958-3.43772.21319-2.05558-.44085-3.40028-1.87921-3.40028-3.63714v-.48301l-.86581.53518c-2.59114 1.60163-5.513725 2.83064-8.008426 3.36772-1.367611.29443-3.232106.37056-4.026277.16441-1.128795-.293-2.232249-1.04807-2.765753-1.89254-.128377-.2032-.251899-.36926-.274496-.36902-.0226.00023-1.925931 2.4406-4.229632 5.423l-4.18856 5.42265h-2.939604c-1.616783 0-2.938889-.0277-2.938013-.0616zm-3.057955-13.08407c.719238-.34026 1.299814-.81006 2.4018-1.94352 1.098153-1.12953 1.769647-1.94173 3.896875-4.71349.849759-1.10723 1.580202-2.05758 1.623208-2.11191.239507-.30253-.474679-.88176-1.196885-.97071-.941524-.11597-2.391438.42805-3.772493 1.41547-1.335573.95491-3.110865 2.93063-3.997605 4.44894-.599481 1.02645-.853443 1.76687-.891885 2.60027-.03107.67369-.01676.76502.160814 1.02592.383058.56281.946044.64175 1.776171.24903zm23.057893-.006c2.178043-.8149 5.557443-4.66125 6.417333-7.304.17853-.54872.2018-1.3017.0491-1.5881-.26703-.50075-1.15042-.47456-2.28135.0676-2.365612 1.13415-5.486659 4.92218-5.99839 7.2803-.163639.75408-.104396 1.1572.217353 1.47895.201059.20105.298471.23414.689315.23414.258101 0 .650646-.0731.90666-.16893zm43.586213-.0873c.84648-.36291 2.3334-1.71373 3.07522-2.79373l.31156-.45362-.17335-.40442c-.42138-.98303-.51674-2.17388-.25457-3.17906.0795-.30505.11914-.55464.088-.55464-.0312 0-.34175.1861-.69017.41355-1.98581 1.29635-3.98906 4.34754-3.98906 6.07582 0 1.0643.5438 1.36281 1.6324.8961zm22.66358-13.97573c4.14985-4.49653 6.67636-8.37662 5.77019-8.86159-.99544-.53274-3.54492 2.9471-6.89596 9.41244-.65863 1.27074-.67111 1.30508-.37327 1.02711.16949-.15817.84405-.86826 1.49904-1.57796zm-76.966237-2.27083c0-1.40791.02995-1.97634.119865-2.27511.10667-.35444.105497-.44221-.01066-.79735-.331386-1.01315.240189-2.16045 1.524741-3.06056.463262-.32462.656345-.51598.732146-.7256.161391-.44632.603872-.96685 1.182302-1.39086.292089-.21412.645668-.56615.78573-.78231.140063-.21615.400037-.50983.577719-.65262.259371-.20844.332757-.3296.372244-.61457.135995-.98145.783597-2.67465 1.392148-3.63986.852617-1.35231 2.303235-2.86744 3.659951-3.8227.929872-.65473 2.263745-1.37308 3.303855-1.77927.739841-.28894.795621-.32798 1.068071-.74759.331005-.50981.888385-.96706 1.622955-1.33142l.51356-.25474v-1.80573c0-1.64874-.0143-1.83238-.16434-2.11234-.28053-.5234-.19641-1.23229.19754-1.66484.1029-.11299.23486-.32656.29323-.47462.0584-.14806.28061-.42607.49386-.6178.21325-.19174.46359-.52009.5563-.72968.17443-.39434.74064-1.01058 1.00586-1.09476.14017-.0445.15343-.18682.17864-1.91782.0301-2.06728.051-2.15553.58633-2.48197.49856-.30399 1.1713-.13209 1.5112.38616.12962.19764.15167.46106.17549 2.09581.0252 1.731.0385 1.87333.17863 1.91782.26523.0842.83143.70042 1.00586 1.09476.0927.20959.34305.53794.5563.72968.21326.19173.43549.46974.49386.6178.0584.14806.19033.36163.29323.47462.39395.43255.47807 1.14144.19755 1.66484-.15005.27996-.16434.4636-.16434 2.11234v1.80573l.51355.25474c.73458.36436 1.29195.82161 1.62296 1.33142.27246.41961.32823.45865 1.06807.74759 2.86854 1.12025 5.44479 3.1927 6.96381 5.60197.60855.96521 1.25616 2.65841 1.39215 3.63986.0395.28497.11287.40613.37224.61457.17768.14279.4368.43514.57581.64967s.50019.57406.80263.79895c.60369.44891.85516.7407 1.17346 1.36163.1487.29005.32584.48241.60252.65427 1.2769.79313 1.97132 2.13663 1.64737 3.18712-.10413.33764-.10483.44196-.005.77312.0843.28011.1152.88638.1152 2.25965v1.87682h-.73952-.73952l-.00093-1.705c0-.93775-.0382-1.84083-.0843-2.00683-.19715-.70983-1.6132-1.5962-3.57177-2.23572-7.84879-2.56281-23.107003-2.54779-30.936582.0305-1.798652.59229-3.260091 1.52685-3.448514 2.20525-.04611.166-.08404 1.06908-.08429 2.00683l-.000072 1.705h-.73952-.739521zm2.847642-4.35429c2.646462-1.32869 7.694308-2.31153 13.606155-2.64918 2.23916-.12788 8.11106-.0557 10.12784.12449 6.02032.53793 10.55686 1.64783 12.67455 3.10093.37693.25864.42395.20863.21594-.22973-.34137-.71937-1.73695-1.55952-3.64871-2.19655-7.55674-2.51802-22.896687-2.52382-30.538797-.0115-1.886481.62017-3.330918 1.48868-3.672299 2.20809-.208017.43836-.160996.48837.215937.22965.19207-.13183.650793-.39111 1.019384-.57616zm1.6455-2.3865c2.615446-.96239 6.500901-1.64226 11.406535-1.99587 1.80223-.12992 7.48286-.12992 9.28509 0 5.27785.38044 8.51618.97497 12.01898 2.20654.0781.0275-.004-.10368-.18337-.29144-.63374-.66488-2.21282-1.3475-4.36907-1.88869-2.01258-.50513-4.05482-.8173-7.17895-1.09735-1.60523-.1439-8.24573-.14444-9.86027-.00093-5.017902.44639-8.37285 1.17362-10.512551 2.27873-.39054.20171-.854758.51491-1.031596.69601-.176837.1811-.298053.32927-.269367.32927.02869 0 .341241-.10638.694569-.23639zm3.428253-2.55683c5.610073-1.48555 14.221882-1.79924 21.330732-.77696 1.4638.2105 3.55793.64556 4.51504.93801.29142.089.54342.14833.56.13175.0741-.0741-1.85137-.75242-2.85322-1.00521-3.06866-.77429-6.47523-1.1233-10.97281-1.12417-4.98403-.00093-9.247621.51829-12.160993 1.48106-.575914.19033-1.898036.76142-1.486945.64229.08605-.0249.566735-.15398 1.068196-.28677zm-.317665-1.26882.660449-.24099.227164-.78602c.529924-1.83363 1.587643-3.52957 3.103396-4.97593.543416-.51854.619159-.61621.360155-.4644-1.199716.70317-2.665231 2.00771-3.474767 3.09309-.536925.71988-1.176651 1.94997-1.450668 2.78939-.214321.65654-.256827.90196-.147813.85333.03389-.0151.358831-.13594.722084-.26847zm26.660697.15296c0-.24839-.41356-1.35841-.77199-2.07211-.86881-1.7299-2.55688-3.48966-4.36288-4.54819-.25901-.15181-.18327-.0541.36015.4644 1.5157 1.44632 2.57348 3.14231 3.10335 4.97578l.22712.78588.6605.25257c.79788.3051.78375.30255.78375.14167zm-22.997714-1.10442.543662-.0921.177616-.67232c.555002-2.10087 1.625975-3.9845 3.079816-5.4168.35595-.35067.6232-.63759.5939-.63759-.13806 0-1.404153.6933-2.103838 1.15203-.941211.61708-2.342397 1.98985-2.934424 2.8749-.51335.76744-1.054432 1.83465-1.30886 2.58152-.106606.31297-.193836.59427-.193836.62512 0 .0308.360515-.0291.801146-.13326.440631-.10415 1.045797-.23081 1.344818-.28148zm20.483904-.25344c-.29226-.81342-.7866-1.78647-1.28962-2.53846-.5781-.86424-1.9883-2.24529-2.93004-2.8695-.69349-.45966-1.96555-1.15743-2.11002-1.15743-.0303 0 .25545.30937.63498.68749 1.45997 1.45452 2.55092 3.40192 3.07534 5.48965l.13668.54416.75248.13548c.41387.0745 1.01116.20144 1.32734.28204.31617.0806.58532.12138.59811.0906.0128-.0308-.0751-.32958-.19525-.66405zm-17.535396-.16956c.519716-.053.955746-.10407.968946-.11346.0132-.009.11498-.45615.22616-.99279.24984-1.20587.60497-2.36273 1.01683-3.31232.31096-.71694.93391-1.76375 1.26225-2.12105.25374-.27613.0838-.22577-.6.17784-1.44831.85484-2.632365 2.19085-3.5271 3.9798-.319555.63892-.908296 2.24519-.908296 2.47811 0 .0734.08853.0883.308134.0516.169473-.0283.733357-.0948 1.253076-.14778zm14.215216.0854c0-.0508-.12717-.47234-.2826-.93683-.82268-2.45855-2.29723-4.41512-4.15281-5.51033-.68381-.40361-.85373-.45397-.59999-.17784.60469.65804 1.37611 2.20011 1.82669 3.65156.18529.59689.65394 2.58168.66082 2.7987 0 .0113.1578.0234.34987.0268.19207.003.682.0536 1.08874.11154.9881.14062 1.10928.14459 1.10928.0364zm-10.90792-.36529 1.04765-.052v-.42312c.001-1.58846.56146-5.27471.94967-6.24678.0597-.14945.0544-.14964-.17718-.006-.38976.24143-1.09435.94965-1.42649 1.43382-.70479 1.02746-1.30442 2.52878-1.68152 4.21011-.26981 1.20301-.26963 1.21822.014 1.17251.12428-.02.69741-.0598 1.27362-.0884zm7.53899-.005c0-.30331-.44363-2.08081-.71117-2.84941-.50831-1.46033-1.14493-2.56177-1.89005-3.27003-.39894-.37921-.75613-.64885-.85953-.64885-.0304 0 .0124.21736.0951.48302.33624 1.08035.68132 3.38126.78602 5.2409l.0563.99921.95357.0523c.52446.0288 1.04601.0635 1.159.0772.11298.0137.25164.0305.30813.0372.0565.007.10271-.048.10271-.12159zm-3.28675-.34592c0-1.03933-.38321-4.06477-.66256-5.23092-.15694-.65512-.46724-1.43795-.56998-1.43795-.0805 0-.38872.71665-.53017 1.23253-.25913.94511-.70236 4.37575-.70236 5.43634v.31548h1.23253 1.23254zm-4.91864-7.154c2.43348-.49501 4.94015-.49474 7.37606.00094.42514.0865.78909.14112.80879.12141.0632-.0632-.66304-.55474-1.12982-.76469-.88263-.397-1.79064-.54348-3.36893-.54348-1.63366 0-2.5657.15974-3.47377.59537-.45324.21744-1.17271.7349-1.03402.7437.0289.002.39868-.0671.82169-.15311zm1.91275-1.86547c.11406-.0438.12998-.32043.12998-2.25965 0-2.33342.005-2.30128-.36304-2.15989-.11406.0438-.12998.32042-.12998 2.25964 0 2.33342-.005 2.30128.36304 2.1599zm3.90974-2.15911v-2.20898l-.18488-.0495c-.10168-.0272-.21261-.05-.2465-.0507-.0339-.0007-.0616.99415-.0616 2.21059 0 2.30419-.003 2.28521.34922 2.30109.13354.006.14379-.15101.14379-2.20249zm-2.54723-.215v-2.25965h-.24651-.2465v2.25965 2.25964h.2465.24651zm1.3147 0v-2.25965h-.24651-.2465v2.25965 2.25964h.2465.24651zm-1.98612-2.76131c.90028-.1203 2.16613-.0466 2.97215.173.81179.2212.86277.22624.86277.0854 0-.17219-.47644-.46889-.92773-.57773-.21283-.0513-.88946-.11403-1.50361-.13931-1.49826-.0617-2.68014.16547-3.0254.58149-.19828.23891-.0165.29088.45266.12945.25115-.0864.77728-.19996 1.16916-.25233zm-.10919-.97394c.9522-.13633 2.45973-.0731 3.11217.13043.26109.0815.069-.12154-.28681-.30304-.51334-.26188-1.50728-.37576-2.28736-.26206-.3594.0524-.80061.17031-.98045.26206-.35577.1815-.5479.3845-.28681.30304.0847-.0265.41291-.0851.72926-.13043zm1.19145-1.02528c.38414 0 .80012.0272.9244.0606.30289.0812.29948-.0879-.008-.38221-.48112-.46095-1.28401-.47737-1.7861-.0365-.3512.30835-.37703.50503-.055.41873.12428-.0333.54026-.0606.9244-.0606zm-18.405825 28.72568c0-1.45521.01131-1.56967.188139-1.90406.235305-.44497.674594-.69752 1.080743-.62132.350634.0658.746353.50131.868863.95628.119828.44501.059.5943-.10972.26927-.157118-.30267-.510759-.60298-.71008-.60298-.07641 0-.228575.0953-.338138.21183-.193729.206-.199907.25342-.224826 1.72555l-.02562 1.51372h-.364678-.364679zm34.593565.0898c.00093-1.53808.062-1.87082.42114-2.27989.62254-.70903 1.6495-.24343 1.77148.80316l.0404.34691-.16089-.24651c-.42361-.64907-.80472-.76601-1.11944-.34349-.15711.21093-.1749.36009-.19842 1.66392l-.0258 1.43223h-.36447-.36446l.00093-1.37633zm-31.470688-1.10928c.000256-.77958.03865-1.55493.08533-1.723.1807-.65064.786939-1.0692 1.278712-.88286.472266.17896.854063.72023.854063 1.21081 0 .19222-.01859.18205-.249177-.13627-.329645-.45506-.580153-.57009-.852658-.39154-.301371.19746-.376235.60407-.376745 2.04611l-.000466 1.29416h-.369763-.369761l.00049-1.41741zm28.347808-.10535c0-1.67256.0432-1.87949.4777-2.28794.63735-.59915 1.54854-.0999 1.70678.93521l.0565.36934-.27824-.40943c-.15796-.23244-.37682-.44386-.50628-.48907-.19591-.0684-.2596-.0481-.45193.14405l-.22388.22368-.0256 1.51846-.0256 1.51846h-.36468-.36468zm-25.225849-.55763c0-1.52278.100789-2.02204.481913-2.38718.657721-.63013 1.590667-.13639 1.76544.93431l.04694.28759-.139745-.20542c-.457377-.67233-.860292-.82512-1.162558-.44085-.157855.20068-.170304.32379-.170304 1.68447v1.46795h-.410844-.410845zm22.033969-.15871c.0251-1.3272.0481-1.53736.19986-1.82826.52999-1.01579 1.64596-.86279 1.97552.27086.0703.24187.11015.45746.0885.47908-.0216.0216-.12166-.0939-.22232-.2568-.23915-.38697-.51801-.5664-.77858-.501-.38295.0961-.45403.39898-.45403 1.93475v1.40095h-.41868-.41868zm-18.829381-.43467c0-1.35406.01801-1.5587.162045-1.84103.233163-.45704.528864-.66185.955575-.66185.293589 0 .403753.0478.628872.27293.258823.25883.472487.75362.471715 1.09239 0 .10429-.07948.0355-.242867-.21075-.133376-.20105-.339193-.41621-.45736-.47813-.186203-.0976-.241963-.0948-.418158.0206-.111815.0733-.238626.22612-.281798.33968-.04318.11356-.0785.83266-.0785 1.598v1.39152h-.36976-.36976zm15.694251.12002c0-1.60095.0696-1.94752.47207-2.34997.22512-.22512.33528-.27293.62887-.27293.23688 0 .42913.0576.57473.17211.26861.21128.54289.73086.54289 1.0284 0 .21393-.008.21022-.24392-.11571-.23047-.31815-.47217-.50962-.64333-.50962-.042 0-.17303.0967-.29117.21481-.21394.21394-.21491.22091-.23717 1.70501l-.0224 1.49019-.39031.025-.3903.025zm-12.570025-.34271c.002-1.6452.06741-1.93774.528065-2.36236.34338-.31648.8542-.28861 1.22066.0666.26352.2554.46802.7116.46802 1.04402 0 .0973-.0838.0309-.24918-.19739-.44782-.61821-.7998-.64588-1.08593-.0854-.11984.23476-.14369.5097-.1438 1.65776v1.37633h-.36976-.369755l.002-1.49958zm9.449415 0c.002-1.6452.0674-1.93774.52807-2.36236.32853-.30279.85263-.28757 1.18882.0345.27213.26072.53286.84278.48614 1.08531-.023.11944-.067.0877-.20682-.14934-.20453-.34664-.52812-.58575-.73801-.54533-.0797.0154-.22944.15329-.33271.30654-.17767.26363-.18777.35539-.18777 1.70444v1.4258h-.36976-.36977zm-6.31467-.20542c.0256-1.46595.0369-1.558.23148-1.89794.54109-.94514 1.64924-.71964 1.93822.39441.0633.24415.10495.45412.0925.46659-.0125.0125-.15109-.15123-.30805-.36378-.35889-.48601-.70045-.56169-.97274-.21554-.16226.2063-.17383.31868-.17383 1.68897v1.46795h-.41725-.41724zm3.12488.0411c.0384-1.66238.10119-1.92379.55372-2.30456.65597-.55197 1.50951-.0631 1.69246.96932l.0582.32867-.25502-.34625c-.14027-.19044-.3482-.40731-.46208-.48192-.19261-.1262-.22164-.12611-.41614.001-.115.0753-.24442.22992-.28759.34348-.0432.11356-.0785.83266-.0785 1.59799v1.39153h-.41981-.41986l.0346-1.49959zm-32.214825-18.20043c-.05488-.48582-.120982-1.05309-.146905-1.2606l-.04713-.37728-1.264624-.23898c-.695544-.13144-1.264686-.25847-1.26476-.28229-.000074-.0238.51753-.28034 1.15023-.57004.9432-.43188 1.14978-.55726 1.147116-.69622-.0018-.0932-.06913-.67878-.149653-1.30125-.08052-.62248-.119763-1.12165-.0872-1.10928.03256.0124.43787.42923.900687.92635s.882524.89239.932683.87837c.05016-.014.567631-.24628 1.14994-.51616.582309-.26987 1.075359-.47406 1.095666-.45375.02031.0203-.237087.53336-.571988 1.14011l-.608909 1.10319.897842.9578c.493814.52679.847902.957.786863.95601-.06104-.00093-.638265-.10601-1.282724-.23338-.829923-.16403-1.192356-.20545-1.242401-.142-.03886.0493-.319803.54254-.624314 1.09615-.30451.55361-.579978 1.00657-.612148 1.00657s-.103391-.39749-.158266-.88332zm62.804345-.12325c-.30451-.55361-.58545-1.04688-.62431-1.09615-.05-.0634-.41248-.022-1.2424.142-.64446.12737-1.22169.23239-1.28272.23338-.0611.00093.29363-.42985.78816-.9574l.89914-.95919-.60965-1.10236c-.33531-.60629-.59329-1.11872-.57329-1.13872s.5128.18444 1.0951.45431c.58232.26988 1.09979.50215 1.14995.51616.0502.014.46987-.38125.93268-.87837.46282-.49712.86812-.91398.90069-.92635.0326-.0124-.007.4868-.0872 1.10928-.0805.62247-.14786 1.20804-.14965 1.30125-.003.13896.20392.26434 1.14712.69622.6327.2897 1.1503.54622 1.15023.57004-.00007.0238-.56883.15077-1.26389.28212l-1.26376.23882-.14816 1.26077c-.0815.69341-.1743 1.26076-.20626 1.26076-.032 0-.30726-.45296-.61177-1.00657zm-46.842711-4.43712c.02578-.32765.05667-.92657.06864-1.33094l.02177-.73521-1.027111-.39555c-.564912-.21756-1.119552-.43689-1.232534-.4874-.183656-.0821-.07047-.12818 1.068196-.43472l1.273618-.34286.05202-.52983c.02861-.29141.05634-.83186.06163-1.201.0053-.36915.03221-.7301.05985-.80211.03506-.0914.25794.1859.737648.91768.378076.57674.697499 1.07567.709824 1.10874.01233.0331.589891-.0897 1.283487-.27273.693596-.18308 1.273322-.32064 1.288277-.30568.01496.015-.342932.48085-.795321 1.0353l-.822511 1.00811.704393 1.08014c.387418.59408.688362 1.09617.668764 1.11577-.0196.0196-.342792-.0831-.718222-.22816-.375429-.14509-.912452-.35172-1.193388-.45918l-.510786-.19538-.835133 1.02537c-.459322.56395-.85197 1.02536-.872551 1.02536-.02058 0-.01633-.26807.0094-.59572zm30.792031-.42914-.83517-1.02722-.51259.19417c-.28192.10679-.82015.31333-1.19605.45898-.37591.14565-.69809.25019-.71596.23231-.0179-.0179.2833-.51977.66928-1.11533l.70178-1.08283-.82217-1.00768c-.45219-.55422-.80993-1.01991-.79497-1.03487.0149-.0149.59469.1226 1.28828.30568.6936.18308 1.27116.30581 1.28349.27273.0836-.22418 1.40334-2.14026 1.4453-2.09829.0288.0288.0567.38828.062.79878.005.4105.033.98479.0616 1.2762l.052.52983 1.26883.3389c.69785.1864 1.234.36033 1.19145.38653-.0426.0262-.57656.23827-1.18666.47127-.61011.23301-1.13511.44924-1.16668.48052-.0316.0313-.0232.62779.0186 1.32558.0418.6978.064 1.2807.0494 1.29534-.0146.0147-.40244-.43563-.86179-1.0006z" stroke-width=".938982"/><g stroke-width=".24331" transform="matrix(1.0120326 0 0 1.0302052 -2.130553 -4.508016)"><g stroke-width=".24331"><path d="m105.27058 202.28895 1.08551 1.41529h-1.11758l-.84734-1.32827h-.009v1.32827h-.89772v-3.4535h1.342q.51299.005.85651.26108.34351.25191.34351.80612 0 .35726-.19695.63665-.19236.27481-.55878.33894zm-.88857-1.35117v.86108h.087q.0229.005.0458.005.0229 0 .0412 0 .20153-.009.36642-.0916.16947-.087.16947-.33894 0-.25191-.16947-.33436-.16489-.087-.36642-.0962-.0183 0-.0412 0-.0229 0-.0458 0l-.087-.005z"/><path d="m108.56233 201.01106h-1.06719v.57711h1.01223v.76032h-1.01223v.59543h1.06719v.76032h-1.96492v-3.4535h1.96492z"/><path d="m110.78274 201.77596h1.78172q-.005.38016-.0641.71452-.0595.32977-.28855.65497-.25192.35268-.62291.51299-.36642.1603-.80155.1603-.81528 0-1.32826-.49924-.51299-.50383-.51299-1.31911 0-.84276.51757-1.35117.52214-.5084 1.35575-.5084.5313 0 .92978.24275.40306.23817.6275.72368l-.85193.35267q-.0916-.24275-.28397-.3939-.19237-.15114-.46261-.15114-.4168 0-.64581.31145-.22443.31146-.24733.68246-.005.0229-.005.0504 0 .0229 0 .0458 0 .005 0 .0137 0 .005 0 .0137.009.3939.24275.72368.23359.32978.66871.32978.29314 0 .49467-.15115.20153-.15115.22901-.44886l-.73284-.005v-.70536z"/><path d="m113.35504 202.72407q.22443.005.38016.16031.15573.15573.15573.38016 0 .21985-.15573.37558-.15573.15572-.38016.15572-.22443 0-.38016-.15572-.15573-.15573-.15573-.37558 0-.22443.15573-.38016.15573-.15573.38016-.15573z"/><path d="m117.64554 200.25074h.89773v1.94202q0 .33894-.055.65498-.0504.31603-.30688.56794-.16489.16489-.3939.25192-.22443.0824-.4626.10992-.0733.009-.14657.0137-.0733.005-.14199.005-.0687 0-.14198-.005-.0733-.005-.14657-.0137-.23817-.0275-.46719-.10992-.22443-.087-.38932-.25192-.25649-.25191-.31145-.56794-.0504-.31604-.0504-.6504v-1.9466h.89772v1.81836q0 .0321 0 .0595 0 .0229 0 .0504.005.31146.10535.57253.10534.26107.50382.26107.39848 0 .49925-.26107.10534-.26107.10992-.57253 0-.0275 0-.0504 0-.0275 0-.055v-1.82294z"/><path d="m119.48751 202.72407q.22443.005.38016.16031.15572.15573.15572.38016 0 .21985-.15572.37558-.15573.15572-.38016.15572-.22443 0-.38016-.15572-.15573-.15573-.15573-.37558 0-.22443.15573-.38016.15573-.15573.38016-.15573z"/><path d="m122.84962 200.44311-.35726.6962q-.12366-.10077-.27939-.16031-.15115-.0641-.31604-.0641-.0229 0-.0504.005-.0275 0-.055.009-.10535.0229-.19237.0916-.087.0687-.087.18321 0 .10993.0825.17863.0824.0641.17863.10535.0366.0137.0687.0275.0366.009.0687.0183l.22902.0641q.36183.10993.60459.32062.24733.20611.24733.62749 0 .0183 0 .0366 0 .0183 0 .0366-.009.23818-.087.46719-.0779.22443-.27023.38932-.17405.15114-.3939.22443-.21985.0733-.44886.0916-.0366 0-.0733 0-.0321.005-.0641.005-.3252 0-.63665-.10076-.31146-.10535-.57711-.28856l.38474-.72825q.16947.15114.36642.25649.20153.10535.43054.10535.009 0 .0183 0 .009 0 .0183 0 .15115-.009.27482-.0916.12366-.087.12366-.25649 0-.12825-.10534-.20611-.10077-.0779-.22902-.12367-.055-.0183-.10992-.0321-.055-.0183-.10077-.0321-.009-.005-.0229-.005-.009-.005-.0183-.009-.40764-.11451-.65039-.29314-.24275-.17863-.24275-.66871 0-.52673.33435-.84277.33894-.31603.85651-.31603.10534 0 .21527.0137.10992.009.21985.0366.17405.0366.33894.0962.16947.0595.30687.1374z"/><path d="m123.83662 202.72407q.22443.005.38016.16031.15573.15573.15573.38016 0 .21985-.15573.37558-.15573.15572-.38016.15572-.22443 0-.38016-.15572-.15573-.15573-.15573-.37558 0-.22443.15573-.38016.15573-.15573.38016-.15573z"/><path d="m126.01495 203.70424v-3.4535h1.37407q.55879.005.90689.27482.3481.27023.3481.86566 0 .60917-.32062.89315-.31603.27939-.9023.27939l-.50841-.005v1.14506h-.89773zm.89773-2.72982v.86108h.15115q.24275.005.44428-.0458.20153-.055.20153-.371 0-.32519-.19237-.38016-.19237-.0595-.45344-.0595l-.15115-.005z"/><path d="m130.95897 203.10423h-1.23666l-.23817.60001h-.95269l1.32827-3.4535h.98017l1.30078 3.4535h-.95726zm-.24275-.68704-.36642-1.09925h-.009l-.371 1.09925h.74658z"/><path d="m133.50354 201.01106v2.69318h-.89772v-2.69318h-.742v-.76032h2.38172v.76032z"/><path d="m134.80159 202.72407q.22443.005.38015.16031.15573.15573.15573.38016 0 .21985-.15573.37558-.15572.15572-.38015.15572-.22444 0-.38016-.15572-.15573-.15573-.15573-.37558 0-.22443.15573-.38016.15572-.15573.38016-.15573z"/><path d="m139.49194 203.70424-.29772-.32062q-.24275.16947-.5313.28398-.28398.1145-.58169.12824-.0183 0-.0367 0-.0137 0-.0321 0-.44428 0-.77864-.25649-.32977-.25649-.32977-.72826 0-.38932.20611-.60459.21069-.21527.53588-.35726l.0824-.0412-.0733-.10076q-.0137-.0137-.0275-.0321-.0137-.0229-.0275-.0412-.0733-.10076-.13282-.21985-.0596-.12366-.0596-.30229 0-.44887.3252-.6962.32978-.25191.74658-.25191.41222 0 .74657.24733.33436.24733.33436.69162 0 .32061-.18779.5084-.18321.18779-.45344.32062l.43512.45344q.12825-.10992.24275-.22901.11451-.11909.21069-.25649l.50841.48092-.43512.46719-.0412.0412.77406.81528h-1.12216zm-.7878-.8565-.54505-.58627q-.0183.0137-.0366.0275-.0137.009-.0321.0229-.0962.0641-.17863.15573-.0779.087-.0779.21069 0 .1374.10535.21985.10534.0779.22901.0916.0137.005.0275.005.0137 0 .0275 0 .12825 0 .25192-.0412.12366-.0412.22901-.10076zm-.17405-1.33743q.005 0 .009 0 .009-.005.0137-.009.11451-.0687.20611-.16947.0916-.10535.0916-.23817 0-.13283-.0824-.22444-.0824-.0962-.21985-.0962-.11909 0-.20611.0779-.0824.0779-.0824.20611 0 .0962.055.19237.0595.0916.13283.16947.0183.0275.0412.0504.0229.0229.0412.0458z"/><path d="m143.4648 201.01106v2.69318h-.89773v-2.69318h-.74199v-.76032h2.38172v.76032z"/><path d="m144.11049 203.70424.58627-3.4535h.88399l.70078 1.84584.74199-1.84584h.89315l.52215 3.4535h-.89773l-.25191-1.98782h-.009l-.82903 1.98782h-.35725l-.79238-1.98782h-.009l-.28855 1.98782h-.89315z"/><path d="m149.41194 202.72407q.22443.005.38016.16031.15573.15573.15573.38016 0 .21985-.15573.37558-.15573.15572-.38016.15572-.22443 0-.38016-.15572-.15573-.15573-.15573-.37558 0-.22443.15573-.38016.15573-.15573.38016-.15573z"/><path d="m153.36946 200.13624q.74657.005 1.32826.50382.58169.49467.58169 1.27789 0 .83818-.54046 1.36949-.53589.5313-1.36949.5313-.82903 0-1.36949-.5313-.54047-.53131-.54047-1.36949 0-.78322.58169-1.27789.58169-.49924 1.32827-.49924zm0 .87024q-.40306.005-.69162.28398-.28397.27481-.28397.63207 0 .44428.28397.73742.28856.29313.69162.29313.40306 0 .68703-.29313.28856-.29314.28856-.73742 0-.35726-.28856-.63207-.28397-.2794-.68703-.2794z"/><path d="m157.70701 201.01106h-1.08552v.57711h.98475v.76032h-.98475v1.35575h-.89772v-3.4535h1.98324z"/><path d="m160.07856 201.01106h-1.08552v.57711h.98475v.76032h-.98475v1.35575h-.89772v-3.4535h1.98324z"/><path d="m160.70281 202.72407q.22443.005.38016.16031.15572.15573.15572.38016 0 .21985-.15572.37558-.15573.15572-.38016.15572-.22443 0-.38016-.15572-.15573-.15573-.15573-.37558 0-.22443.15573-.38016.15573-.15573.38016-.15573z"/></g><g fill="#63014a" stroke-width=".061724" transform="matrix(1.0232904 0 0 1.0195848 8.438702 -28.432894)"><path d="m57.690345 237.16237 2.292707 2.98923h-2.360424l-1.789665-2.80543h-.01935v2.80543h-1.896078v-7.2941h2.834443q1.083473.01 1.809013.55141.72554.53206.72554 1.7026 0 .75456-.415976 1.34467-.406302.58043-1.180212.71586zm-1.87673-2.85379v1.81869h.183804q.04837.01.09674.01.04837 0 .08706 0 .42565-.0194.773909-.19348.357933-.1838.357933-.71586 0-.53207-.357933-.70619-.348259-.18381-.773909-.20316-.03869 0-.08706 0-.04837 0-.09674 0z"/><path d="m71.520295 234.46336h-2.254011v1.21891h2.137924v1.60586h-2.137924v1.2576h2.254011v1.60587h-4.150089v-7.2941h4.150089z"/><path d="m84.677322 233.03163v2.27336q-.290216-.38696-.735214-.59011-.444997-.20315-.928691-.20315-.870648 0-1.412384.59011-.532063.58043-.532063 1.43173 0 .86097.541736 1.42206.551411.56108 1.431733.56108.464345 0 .899669-.20315.435324-.21282.735214-.57076v2.26369q-.261194.0871-.493367.14511-.232173.0677-.454672.11608-.174129.0387-.357933.058-.174129.0193-.367607.0193-.764235 0-1.470427-.27086-.696519-.28055-1.267277-.79326-.59978-.54174-.889996-1.23826-.280542-.70619-.280542-1.51879 0-.74489.270868-1.44141.280542-.69652.802931-1.22858.522389-.53206 1.228581-.84163.706193-.31924 1.460754-.33858.01935 0 .0387 0 .02902 0 .04837 0 .454672 0 .880322.0967.435324.0967.8513.27086z"/><path d="m96.202942 232.61565q1.576841.01 2.805422 1.06413 1.228576 1.04478 1.228576 2.69901 0 1.77032-1.141511 2.89248-1.131843 1.12217-2.892487 1.12217-1.75097 0-2.892486-1.12217-1.141516-1.12216-1.141516-2.89248 0-1.65423 1.228581-2.69901 1.228581-1.05445 2.805421-1.05445zm0 1.83804q-.8513.01-1.460754.59978-.599779.58043-.599779 1.33499 0 .93837.599779 1.55749.609454.61913 1.460754.61913.851301 0 1.451081-.61913.609453-.61912.609453-1.55749 0-.75456-.609453-1.33499-.59978-.59011-1.451081-.59011z"/><path d="m111.74353 237.16237 2.29271 2.98923h-2.36043l-1.78966-2.80543h-.0194v2.80543h-1.89608v-7.2941h2.83444q1.08347.01 1.80901.55141.72554.53206.72554 1.7026 0 .75456-.41597 1.34467-.4063.58043-1.18021.71586zm-1.87673-2.85379v1.81869h.1838q.0484.01.0967.01.0484 0 .0871 0 .42565-.0194.77391-.19348.35793-.1838.35793-.71586 0-.53207-.35793-.70619-.34826-.18381-.77391-.20316-.0387 0-.0871 0-.0484 0-.0967 0z"/><path d="m121.37645 240.1516v-7.2941h2.68933q1.52847.01 2.61195 1.06413 1.09314 1.05445 1.09314 2.59259 0 1.53815-1.09314 2.5926-1.09315 1.04478-2.61195 1.04478zm1.89608-5.68824v4.08237h.42565q.8513.01 1.47042-.47402.62881-.49336.62881-1.55749 0-.97706-.58044-1.50912-.58043-.53206-1.49945-.53206l-.44499-.01z"/><path d="m140.03891 233.2638-.75456 1.47043q-.2612-.21282-.59011-.33858-.31923-.13544-.66749-.13544-.0484 0-.10642.01-.058 0-.11608.0194-.2225.0484-.40631.19348-.1838.14511-.1838.38695 0 .23218.17413.37729.17413.13543.37728.22249.0774.029.14511.0581.0774.0194.14511.0387l.48369.13544q.76424.23217 1.27695.67717.52239.43532.52239 1.32532 0 .0387 0 .0774 0 .0387 0 .0774-.0194.50304-.1838.98673-.16446.47402-.57076.82228-.36761.31924-.83195.47402-.46435.15478-.94804.19348-.0774 0-.15478 0-.0677.01-.13544.01-.68684 0-1.34467-.21282-.65782-.2225-1.2189-.60946l.8126-1.53814q.35793.31924.77391.54174.42565.2225.90934.2225.0194 0 .0387 0 .0194 0 .0387 0 .31924-.0194.58044-.19348.26119-.18381.26119-.54174 0-.27087-.2225-.43532-.21282-.16446-.48369-.2612-.11609-.0387-.23217-.0677-.11609-.0387-.21283-.0677-.0194-.01-.0484-.01-.0194-.01-.0387-.0193-.86097-.24185-1.37369-.61913-.51271-.37728-.51271-1.41238 0-1.1125.70619-1.78.71587-.66749 1.80901-.66749.2225 0 .45467.029.23218.0194.46435.0774.36761.0774.71587.20315.35793.12576.64814.29022z"/></g></g></g></svg>