<svg width="48" height="48" viewBox="0 0 48 48" fill="none" xmlns="http://www.w3.org/2000/svg">
<path d="M30.6 45L17.45 40.35L8.5 43.9C7.93333 44.2 7.375 44.1833 6.825 43.85C6.275 43.5167 6 43.0167 6 42.35V14.45C6 14.0167 6.125 13.6333 6.375 13.3C6.625 12.9667 6.95 12.7167 7.35 12.55L17.45 9L30.6 13.6L39.5 10.05C40.0667 9.78333 40.625 9.80833 41.175 10.125C41.725 10.4417 42 10.9333 42 11.6V39.85C42 40.2167 41.875 40.5333 41.625 40.8C41.375 41.0667 41.0667 41.2667 40.7 41.4L30.6 45ZM28.9 41.25V16L19.1 12.7V37.95L28.9 41.25ZM31.9 41.25L39 38.9V13.3L31.9 16V41.25ZM9 40.65L16.1 37.95V12.7L9 15.05V40.65Z" fill="#1A1919"/>
</svg>
